<mxfile host="app.diagrams.net" modified="2023-04-08T04:04:25.559Z" agent="Mozilla/5.0 (Windows NT 10.0; Win64; x64) AppleWebKit/537.36 (KHTML, like Gecko) Chrome/111.0.0.0 Safari/537.36" version="21.1.2" etag="kw39_qRltzCG_O30miPn" type="github">
  <diagram name="Page-1" id="6ASVtIXct7iXiq55O_Vc">
    <mxGraphModel>
      <root>
        <mxCell id="0" />
        <mxCell id="1" parent="0" />
      </root>
    </mxGraphModel>
  </diagram>
</mxfile>
